<svg width="92" height="25" viewBox="0 0 92 25" fill="none" xmlns="http://www.w3.org/2000/svg">
<path d="M0.607422 24V0.826172H9.39648C11.8574 0.826172 13.7031 1.37305 14.9336 2.4668C16.1641 3.56055 16.7793 5.05469 16.7793 6.94922C16.7793 8.08203 16.5156 9.05859 15.9883 9.87891C15.4609 10.6797 14.7676 11.3047 13.9082 11.7539C14.8848 12.1055 15.7441 12.7695 16.4863 13.7461C17.2285 14.7031 17.5996 15.875 17.5996 17.2617C17.5996 19.1953 16.9746 20.8066 15.7246 22.0957C14.4941 23.3652 12.7656 24 10.5391 24H0.607422ZM4.47461 20.7188H9.86523C10.9004 20.7188 11.7793 20.416 12.502 19.8105C13.2441 19.2051 13.6152 18.3555 13.6152 17.2617C13.6152 16.2266 13.2734 15.377 12.5898 14.7129C11.9258 14.0488 10.9883 13.7168 9.77734 13.7168H4.47461V20.7188ZM4.47461 10.4648H9.01562C10.1289 10.4648 11.0371 10.2012 11.7402 9.67383C12.4434 9.12695 12.7949 8.31641 12.7949 7.24219C12.7949 6.28516 12.4922 5.5332 11.8867 4.98633C11.3008 4.41992 10.3828 4.13672 9.13281 4.13672H4.47461V10.4648Z" fill="black"/>
<path d="M23.752 15.5625C23.752 17.5156 24.1523 18.9707 24.9531 19.9277C25.7539 20.8848 26.6914 21.3633 27.7656 21.3633C28.8203 21.3633 29.748 20.8848 30.5488 19.9277C31.3496 18.9707 31.75 17.5156 31.75 15.5625C31.75 13.5703 31.3496 12.1055 30.5488 11.168C29.748 10.2109 28.8203 9.73242 27.7656 9.73242C26.7109 9.73242 25.7734 10.2109 24.9531 11.168C24.1523 12.1055 23.752 13.5703 23.752 15.5625ZM19.9434 15.5625C19.9434 13.043 20.6074 10.9141 21.9355 9.17578C23.2637 7.4375 25.207 6.56836 27.7656 6.56836C30.3047 6.56836 32.2383 7.4375 33.5664 9.17578C34.8945 10.9141 35.5586 13.043 35.5586 15.5625C35.5586 16.3438 35.4805 17.125 35.3242 17.9062C35.1875 18.6875 34.9336 19.4883 34.5625 20.3086C34.1914 21.1094 33.7227 21.8223 33.1562 22.4473C32.5898 23.0527 31.8379 23.5508 30.9004 23.9414C29.9824 24.332 28.9375 24.5273 27.7656 24.5273C26.6133 24.5273 25.5684 24.3418 24.6309 23.9707C23.7129 23.5801 22.9609 23.0918 22.375 22.5059C21.8086 21.9004 21.3301 21.1973 20.9395 20.3965C20.5684 19.5762 20.3047 18.7754 20.1484 17.9941C20.0117 17.1934 19.9434 16.3828 19.9434 15.5625Z" fill="black"/>
<path d="M38.6055 24V7.0957H42.1797V8.91211C42.5508 8.28711 43.0781 7.74023 43.7617 7.27148C44.4648 6.80273 45.2949 6.56836 46.252 6.56836C47.1504 6.56836 47.8828 6.69531 48.4492 6.94922V10.3184C47.707 10.084 46.9746 9.9668 46.252 9.9668C44.9824 9.9668 44.0059 10.4648 43.3223 11.4609C42.6582 12.4375 42.3262 13.7461 42.3262 15.3867V24H38.6055Z" fill="black"/>
<path d="M50.3828 24V7.0957H53.9863V9.23438H54.0156C54.3086 8.60938 54.8457 8.01367 55.627 7.44727C56.4277 6.86133 57.4531 6.56836 58.7031 6.56836C60.3828 6.56836 61.7207 7.08594 62.7168 8.12109C63.7129 9.15625 64.2109 10.8262 64.2109 13.1309V24H60.4902V13.6289C60.4902 11.0312 59.6113 9.73242 57.8535 9.73242C56.7793 9.73242 55.8809 10.1621 55.1582 11.0215C54.4551 11.8809 54.1035 12.9453 54.1035 14.2148V24H50.3828Z" fill="black"/>
<path d="M67.0527 15.4746C67.0527 12.7598 67.7949 10.6016 69.2793 9C70.7832 7.37891 72.668 6.56836 74.9336 6.56836C77.1602 6.56836 78.9961 7.37891 80.4414 9C81.8867 10.6211 82.6094 12.7305 82.6094 15.3281C82.6094 15.8359 82.5801 16.334 82.5215 16.8223H70.8027C70.8027 18.1113 71.1836 19.2246 71.9453 20.1621C72.7266 21.0801 73.791 21.5391 75.1387 21.5391C76.0762 21.5391 76.8965 21.3145 77.5996 20.8652C78.3223 20.3965 78.8691 19.8008 79.2402 19.0781L82.3457 20.1328C81.7988 21.3828 80.9102 22.4277 79.6797 23.2676C78.4492 24.1074 76.916 24.5273 75.0801 24.5273C72.7168 24.5273 70.7832 23.707 69.2793 22.0664C67.7949 20.4258 67.0527 18.2285 67.0527 15.4746ZM70.8613 14.2148H78.8301C78.8301 12.9258 78.4883 11.832 77.8047 10.9336C77.1211 10.0156 76.1641 9.55664 74.9336 9.55664C73.7031 9.55664 72.7168 10.0254 71.9746 10.9629C71.252 11.8809 70.8809 12.9648 70.8613 14.2148Z" fill="black"/>
<path d="M86.7109 24V19.4883H91.6328V24H86.7109Z" fill="black"/>
</svg>
