<svg width="92" height="25" fill="none" xmlns="http://www.w3.org/2000/svg"><path d="M.607 24V.826h8.79c2.46 0 4.306.547 5.537 1.64 1.23 1.095 1.845 2.589 1.845 4.483 0 1.133-.263 2.11-.79 2.93a5.498 5.498 0 01-2.08 1.875c.976.351 1.835 1.016 2.577 1.992.742.957 1.114 2.129 1.114 3.516 0 1.933-.625 3.545-1.875 4.834-1.23 1.27-2.96 1.904-5.186 1.904H.607zm3.868-3.281h5.39c1.035 0 1.914-.303 2.637-.909.742-.605 1.113-1.454 1.113-2.548 0-1.035-.342-1.885-1.025-2.55-.664-.663-1.602-.995-2.813-.995H4.475v7.002zm0-10.254h4.54c1.114 0 2.022-.264 2.725-.791.703-.547 1.055-1.358 1.055-2.432 0-.957-.303-1.709-.908-2.256-.586-.566-1.504-.85-2.754-.85H4.475v6.329zm19.277 5.098c0 1.953.4 3.408 1.201 4.365.8.957 1.738 1.435 2.813 1.435 1.054 0 1.982-.478 2.783-1.435.8-.957 1.201-2.412 1.201-4.366 0-1.992-.4-3.457-1.201-4.394-.801-.957-1.729-1.436-2.783-1.436-1.055 0-1.993.479-2.813 1.436-.8.938-1.201 2.402-1.201 4.395zm-3.809 0c0-2.52.664-4.649 1.992-6.387 1.329-1.739 3.272-2.608 5.83-2.608 2.54 0 4.473.87 5.801 2.608 1.328 1.738 1.993 3.867 1.993 6.386 0 .782-.078 1.563-.235 2.344-.136.782-.39 1.582-.761 2.403-.372.8-.84 1.513-1.407 2.138-.566.606-1.318 1.104-2.256 1.494-.918.391-1.962.586-3.134.586-1.153 0-2.198-.185-3.135-.556-.918-.39-1.67-.88-2.256-1.465a8.548 8.548 0 01-1.436-2.11 11.142 11.142 0 01-.79-2.402c-.137-.8-.206-1.611-.206-2.431zM38.605 24V7.096h3.575v1.816c.37-.625.898-1.172 1.582-1.64.703-.47 1.533-.704 2.49-.704.898 0 1.63.127 2.197.381v3.37a7.268 7.268 0 00-2.197-.352c-1.27 0-2.246.498-2.93 1.494-.664.976-.996 2.285-.996 3.926V24h-3.72zm11.778 0V7.096h3.603v2.138h.03c.293-.625.83-1.22 1.611-1.787.8-.586 1.826-.879 3.076-.879 1.68 0 3.018.518 4.014 1.553.996 1.035 1.494 2.705 1.494 5.01V24h-3.72V13.629c0-2.598-.88-3.897-2.638-3.897-1.074 0-1.972.43-2.695 1.29-.703.859-1.055 1.923-1.055 3.193V24h-3.72zm16.67-8.525c0-2.715.742-4.873 2.226-6.475 1.504-1.621 3.389-2.432 5.655-2.432 2.226 0 4.062.81 5.507 2.432 1.446 1.621 2.168 3.73 2.168 6.328 0 .508-.029 1.006-.087 1.494h-11.72c0 1.29.382 2.403 1.143 3.34.782.918 1.846 1.377 3.194 1.377.937 0 1.758-.225 2.46-.674a4.634 4.634 0 001.641-1.787l3.106 1.055c-.547 1.25-1.436 2.295-2.666 3.135-1.23.84-2.764 1.26-4.6 1.26-2.363 0-4.297-.821-5.8-2.462-1.485-1.64-2.227-3.837-2.227-6.591zm3.808-1.26h7.97c0-1.29-.343-2.383-1.026-3.281-.684-.918-1.64-1.377-2.871-1.377-1.23 0-2.217.468-2.96 1.406-.722.918-1.093 2.002-1.113 3.252zM86.71 24v-4.512h4.923V24H86.71z" fill="#000"/></svg>